<svg xmlns="http://www.w3.org/2000/svg" width="15" height="15" viewBox="0 0 15 15"><defs><style>.a{fill:#626262;}</style></defs><path class="a" d="M7.427,35.479a3.846,3.846,0,1,0,3.845,3.846A3.839,3.839,0,0,0,7.427,35.479Zm0,6.346a2.5,2.5,0,1,1,2.5-2.5A2.5,2.5,0,0,1,7.427,41.825Zm4.9-6.5a.9.9,0,1,1-.9-.9A.895.895,0,0,1,12.326,35.322Zm2.547.91a4.44,4.44,0,0,0-1.211-3.143,4.467,4.467,0,0,0-3.142-1.212c-1.238-.07-4.949-.07-6.187,0a4.46,4.46,0,0,0-3.142,1.208A4.454,4.454,0,0,0-.022,36.229c-.07,1.238-.07,4.95,0,6.189A4.44,4.44,0,0,0,1.189,45.56a4.473,4.473,0,0,0,3.142,1.212c1.238.07,4.949.07,6.187,0a4.438,4.438,0,0,0,3.142-1.212,4.469,4.469,0,0,0,1.211-3.143C14.943,41.179,14.943,37.471,14.872,36.232Zm-1.6,7.514a2.531,2.531,0,0,1-1.426,1.426,16.524,16.524,0,0,1-4.421.3,16.653,16.653,0,0,1-4.421-.3,2.531,2.531,0,0,1-1.426-1.426,16.534,16.534,0,0,1-.3-4.421,16.663,16.663,0,0,1,.3-4.421,2.531,2.531,0,0,1,1.426-1.426,16.524,16.524,0,0,1,4.421-.3,16.653,16.653,0,0,1,4.421.3A2.531,2.531,0,0,1,13.273,34.9a16.534,16.534,0,0,1,.3,4.421A16.525,16.525,0,0,1,13.273,43.746Z" transform="translate(0.075 -31.825)"/></svg>