<svg xmlns="http://www.w3.org/2000/svg" width="20.17" height="19.725" viewBox="0 0 20.17 19.725"><defs><style>.a{fill:#fff;}</style></defs><path class="a" d="M7.644,4.1,6.2,2.652A10.545,10.545,0,0,0,2.03,10.592H4.053A8.543,8.543,0,0,1,7.644,4.1Zm12.533,6.494H22.2a10.61,10.61,0,0,0-4.168-7.941L16.6,4.1A8.593,8.593,0,0,1,20.177,10.592Zm-1.993.506c0-3.105-1.659-5.705-4.552-6.393V4.017a1.517,1.517,0,0,0-3.035,0v.688c-2.9.688-4.552,3.277-4.552,6.393v5.058L4.023,18.179v1.012H20.208V18.179l-2.023-2.023ZM12.115,22.225a1.772,1.772,0,0,0,.4-.04,2.052,2.052,0,0,0,1.457-1.194,2.031,2.031,0,0,0,.152-.789H10.082a2.038,2.038,0,0,0,2.033,2.023Z" transform="translate(-2.03 -2.5)"/></svg>