<svg xmlns="http://www.w3.org/2000/svg" width="43" height="43" viewBox="0 0 43 43"><defs><style>.a{fill:#4b104c;}.b{fill:#fff;}</style></defs><g transform="translate(-1 -1)"><g transform="translate(-100 -512)"><rect class="a" width="43" height="43" transform="translate(101 513)"/></g><path class="b" d="M-4.059-4.153V-5.624H-5.529A1.474,1.474,0,0,0-7-4.153,1.474,1.474,0,0,0-5.529-2.682,1.474,1.474,0,0,0-4.059-4.153Zm.741,0V-.471A1.474,1.474,0,0,0-1.847,1,1.474,1.474,0,0,0-.376-.471V-4.153A1.474,1.474,0,0,0-1.847-5.624,1.474,1.474,0,0,0-3.318-4.153Zm1.471-5.906H-.376v-1.471A1.474,1.474,0,0,0-1.847-13a1.474,1.474,0,0,0-1.471,1.471A1.474,1.474,0,0,0-1.847-10.059Zm0,.741H-5.529A1.474,1.474,0,0,0-7-7.847,1.474,1.474,0,0,0-5.529-6.376h3.683A1.474,1.474,0,0,0-.376-7.847,1.474,1.474,0,0,0-1.847-9.317ZM4.059-7.847v1.471H5.529A1.474,1.474,0,0,0,7-7.847,1.474,1.474,0,0,0,5.529-9.317,1.474,1.474,0,0,0,4.059-7.847Zm-.741,0v-3.683A1.474,1.474,0,0,0,1.847-13,1.474,1.474,0,0,0,.376-11.529v3.683A1.474,1.474,0,0,0,1.847-6.376,1.474,1.474,0,0,0,3.317-7.847ZM1.847-1.941H.376V-.471A1.474,1.474,0,0,0,1.847,1,1.474,1.474,0,0,0,3.317-.471,1.474,1.474,0,0,0,1.847-1.941Zm0-.741H5.529A1.474,1.474,0,0,0,7-4.153,1.474,1.474,0,0,0,5.529-5.624H1.847A1.474,1.474,0,0,0,.376-4.153,1.474,1.474,0,0,0,1.847-2.682Z" transform="translate(23 29)"/></g></svg>