<svg xmlns="http://www.w3.org/2000/svg" width="18" height="14.62" viewBox="0 0 18 14.62"><defs><style>.a{fill:#626262;}</style></defs><path class="a" d="M16.15,51.726c.011.16.011.32.011.48a10.424,10.424,0,0,1-10.5,10.5A10.425,10.425,0,0,1,0,61.046a7.633,7.633,0,0,0,.891.046,7.388,7.388,0,0,0,4.58-1.576,3.7,3.7,0,0,1-3.449-2.558,4.653,4.653,0,0,0,.7.057,3.9,3.9,0,0,0,.971-.126A3.69,3.69,0,0,1,.731,53.267v-.046A3.715,3.715,0,0,0,2.4,53.69a3.695,3.695,0,0,1-1.142-4.934,10.486,10.486,0,0,0,7.607,3.861,4.165,4.165,0,0,1-.091-.845,3.693,3.693,0,0,1,6.385-2.524,7.263,7.263,0,0,0,2.341-.891,3.679,3.679,0,0,1-1.622,2.033A7.4,7.4,0,0,0,18,49.818,7.93,7.93,0,0,1,16.15,51.726Z" transform="translate(0 -48.082)"/></svg>