<svg xmlns="http://www.w3.org/2000/svg" width="117" height="52.719" viewBox="0 0 117 52.719"><defs><style>.a{fill:#0544a8;}.b{fill:#fff;}</style></defs><g transform="translate(-42 -47.352)"><path class="a" d="M.493-15.921H5.887V0h5.684V-15.921h5.452v-4.524H.493ZM45.5-20.445H32.422V0H45.5V-4.553h-7.4V-8.236h6.525v-4.321H38.106v-3.335h7.4ZM60.9-10.266C60.9-4.147,64.931.145,71.079.145c5.133,0,8.787-2.958,9.8-7.6H74.762a4,4,0,0,1-3.77,2.378c-2.61,0-4.321-2.03-4.321-5.191,0-3.132,1.711-5.162,4.321-5.162a4,4,0,0,1,3.77,2.378h6.119c-1.015-4.64-4.669-7.6-9.8-7.6C64.931-20.648,60.9-16.356,60.9-10.266ZM109.475,0h5.684V-20.445h-5.684v7.685h-6.931v-7.685H96.86V0h5.684V-8.207h6.931Z" transform="translate(42 68)"/><g transform="translate(42 77.631)"><path class="a" d="M0,0H117V22.441H0Z" transform="translate(0 0)"/><path class="b" d="M2.926-5.334V-8.176H4.48c1.106,0,1.6.532,1.6,1.428,0,.868-.49,1.414-1.6,1.414ZM8.092-6.748c0-1.694-1.176-3.024-3.528-3.024H.966V0h1.96V-3.752H4.564C7.084-3.752,8.092-5.264,8.092-6.748Zm8.876,2.87a3.833,3.833,0,0,0-3.99-4,3.833,3.833,0,0,0-3.99,4,3.8,3.8,0,0,0,3.934,4A3.878,3.878,0,0,0,16.968-3.878Zm-5.992,0a2.019,2.019,0,0,1,1.974-2.3,2.038,2.038,0,0,1,2,2.3,2.064,2.064,0,0,1-2.03,2.3C11.872-1.582,10.976-2.338,10.976-3.878Zm9.394.014c0-1.5.7-1.946,1.862-1.946h.518V-7.868a2.69,2.69,0,0,0-2.38,1.316v-1.2H18.41V0h1.96Zm4,1.456C24.374-.63,25.368,0,26.852,0h1.232V-1.652h-.91c-.616,0-.826-.224-.826-.742V-6.146h1.736v-1.61H26.348V-9.674H24.374v1.918H23.45v1.61h.924ZM38.976,0h1.96V-9.772h-1.96v4.018H34.79V-9.772H32.83V0h1.96V-4.158h4.186Zm3.388-3.906c0,2.422,1.568,4.032,3.528,4.032a3.059,3.059,0,0,0,2.576-1.26V0h1.974V-7.756H48.468V-6.65a3.067,3.067,0,0,0-2.562-1.232C43.932-7.882,42.364-6.328,42.364-3.906Zm6.1.028A2.088,2.088,0,0,1,46.41-1.6a2.119,2.119,0,0,1-2.044-2.31A2.069,2.069,0,0,1,46.41-6.16,2.088,2.088,0,0,1,48.468-3.878Zm5.852.014c0-1.5.7-1.946,1.862-1.946H56.7V-7.868a2.69,2.69,0,0,0-2.38,1.316v-1.2H52.36V0h1.96Zm3.192-.014a3.721,3.721,0,0,0,3.836,4A3.538,3.538,0,0,0,65-2.618H62.888a1.479,1.479,0,0,1-1.554,1.064c-1.092,0-1.82-.812-1.82-2.324s.728-2.338,1.82-2.338a1.524,1.524,0,0,1,1.554,1.078H65a3.46,3.46,0,0,0-3.654-2.744A3.721,3.721,0,0,0,57.512-3.878Zm16.422,0a3.833,3.833,0,0,0-3.99-4,3.833,3.833,0,0,0-3.99,4,3.8,3.8,0,0,0,3.934,4A3.878,3.878,0,0,0,73.934-3.878Zm-5.992,0a2.019,2.019,0,0,1,1.974-2.3,2.038,2.038,0,0,1,2,2.3,2.064,2.064,0,0,1-2.03,2.3C68.838-1.582,67.942-2.338,67.942-3.878ZM82.7-7.756H80.724v4.27c0,1.246-.672,1.918-1.736,1.918a1.678,1.678,0,0,1-1.722-1.918v-4.27h-1.96v4.55A2.989,2.989,0,0,0,78.414.1,2.86,2.86,0,0,0,80.724-.98V0H82.7ZM86.59-3.864c0-1.5.7-1.946,1.862-1.946h.518V-7.868a2.69,2.69,0,0,0-2.38,1.316v-1.2H84.63V0h1.96Zm4,1.456C90.594-.63,91.588,0,93.072,0H94.3V-1.652h-.91c-.616,0-.826-.224-.826-.742V-6.146H94.3v-1.61H92.568V-9.674H90.594v1.918H89.67v1.61h.924Z" transform="translate(10.591 16.236)"/></g></g></svg>